{"title":"MTV.EMA.Munich.2007.5.Amy.Winehouse.MPEG2.1080i-aB","uid":7469217,"size":1215416804,"categoryP":"video","categoryS":"other","magnet":"?xt=urn:btih:ee943b7c302dfcfce6822a220bb977a77f8d420b&amp;dn=MTV.EMA.Munich.2007.5.Amy.Winehouse.MPEG2.1080i-aB&amp;tr=udp%3A%2F%2Ftracker.openbittorrent.com%3A80&amp;tr=udp%3A%2F%2Fopen.demonii.com%3A1337&amp;tr=udp%3A%2F%2Ftracker.coppersurfer.tk%3A6969&amp;tr=udp%3A%2F%2Fexodus.desync.com%3A6969","seeders":0,"leechers":1,"uploader":null,"files":1,"time":1343096128,"description":"Format                           : MPEG-TS\nFile size                        : 1.13 GiB\nDuration                         : 4mn 6s\nOverall bit rate mode            : Variable\nOverall bit rate                 : 39.5 Mbps\n\nVideo\nID                               : 4096 (0x1000)\nMenu ID                          : 1 (0x1)\nFormat                           : MPEG Video\nFormat version                   : Version 2\nFormat profile                   : Main@High\nFormat settings, BVOP            : Yes\nFormat settings, Matrix          : Custom\nCodec ID                         : 2\nDuration                         : 4mn 6s\nBit rate mode                    : Variable\nBit rate                         : 37.1 Mbps\nMaximum bit rate                 : 38.2 Mbps\nWidth                            : 1 920 pixels\nHeight                           : 1 080 pixels\nDisplay aspect ratio             : 16:9\nFrame rate                       : 25.000 fps\nColor space                      : YUV\nChroma subsampling               : 4:2:0\nBit depth                        : 8 bits\nScan type                        : Interlaced\nScan order                       : Top Field First\nCompression mode                 : Lossy\nBits/(Pixel*Frame)               : 0.716\nStream size                      : 1.06 GiB (94%)\nWriting library                  : (c)2004 Saar Software\n\nAudio\nID                               : 4097 (0x1001)\nMenu ID                          : 1 (0x1)\nFormat                           : MPEG Audio\nFormat version                   : Version 1\nFormat profile                   : Layer 2\nCodec ID                         : 3\nDuration                         : 4mn 6s\nBit rate mode                    : Constant\nBit rate                         : 384 Kbps\nChannel(s)                       : 2 channels\nSampling rate                    : 48.0 KHz\nCompression mode                 : Lossy\nStream size                      : 11.3 MiB (1%)\n","torrent":{"xt":"urn:btih:ee943b7c302dfcfce6822a220bb977a77f8d420b","amp;dn":"MTV.EMA.Munich.2007.5.Amy.Winehouse.MPEG2.1080i-aB","amp;tr":["udp%3A%2F%2Ftracker.openbittorrent.com%3A80","udp%3A%2F%2Fopen.demonii.com%3A1337","udp%3A%2F%2Ftracker.coppersurfer.tk%3A6969","udp%3A%2F%2Fexodus.desync.com%3A6969"],"infoHash":"ee943b7c302dfcfce6822a220bb977a77f8d420b","infoHashBuffer":{"type":"Buffer","data":[238,148,59,124,48,45,252,252,230,130,42,34,11,185,119,167,127,141,66,11]},"announce":[],"urlList":[]}}